HIERARCHY
ROOT Hips
{
	OFFSET -21.947001 39.810204 44.525997
	CHANNELS 6 Xposition Yposition Zposition Zrotation Xrotation Yrotation
	JOINT Chest
	{
		OFFSET -0.201599 0.334099 6.453201
		CHANNELS 6 Xposition Yposition Zposition Zrotation Xrotation Yrotation
		JOINT Chest2
		{
			OFFSET 0.000000 0.000000 3.568001
			CHANNELS 6 Xposition Yposition Zposition Zrotation Xrotation Yrotation
			JOINT Neck
			{
				OFFSET 0.000000 0.000000 8.296402
				CHANNELS 6 Xposition Yposition Zposition Zrotation Xrotation Yrotation
				JOINT Head
				{
					OFFSET 0.000000 0.000000 2.173901
					CHANNELS 6 Xposition Yposition Zposition Zrotation Xrotation Yrotation
					End Site
					{
						OFFSET 0.000000 0.000000 7.891998
					}
				}
			}
			JOINT LeftCollar
			{
				OFFSET 1.927601 0.221401 6.049000
				CHANNELS 6 Xposition Yposition Zposition Zrotation Xrotation Yrotation
				JOINT LeftShoulder
				{
					OFFSET 4.959700 0.000000 0.000000
					CHANNELS 6 Xposition Yposition Zposition Zrotation Xrotation Yrotation
					JOINT LeftElbow
					{
						OFFSET 0.000000 0.000000 -8.654202
						CHANNELS 6 Xposition Yposition Zposition Zrotation Xrotation Yrotation
						JOINT LeftWrist
						{
							OFFSET 0.000000 0.000000 -13.864101
							CHANNELS 6 Xposition Yposition Zposition Zrotation Xrotation Yrotation
							End Site
							{
								OFFSET 0.000000 0.000000 -2.173901
							}
						}
					}
				}
			}
			JOINT RightCollar
			{
				OFFSET -3.155701 -0.764999 6.687801
				CHANNELS 6 Xposition Yposition Zposition Zrotation Xrotation Yrotation
				JOINT RightShoulder
				{
					OFFSET -3.592899 0.000000 0.000000
					CHANNELS 6 Xposition Yposition Zposition Zrotation Xrotation Yrotation
					JOINT RightElbow
					{
						OFFSET 0.000000 0.000000 -10.352398
						CHANNELS 6 Xposition Yposition Zposition Zrotation Xrotation Yrotation
						JOINT RightWrist
						{
							OFFSET 0.000000 0.000000 -12.750301
							CHANNELS 6 Xposition Yposition Zposition Zrotation Xrotation Yrotation
							End Site
							{
								OFFSET 0.000000 0.000000 -2.173901
							}
						}
					}
				}
			}
		}
	}
	JOINT LeftHip
	{
		OFFSET 2.460600 -0.518101 -2.735500
		CHANNELS 6 Xposition Yposition Zposition Zrotation Xrotation Yrotation
		JOINT LeftKnee
		{
			OFFSET 0.000000 -0.000004 -17.005899
			CHANNELS 6 Xposition Yposition Zposition Zrotation Xrotation Yrotation
			JOINT LeftAnkle
			{
				OFFSET 0.000000 0.000000 -19.194401
				CHANNELS 6 Xposition Yposition Zposition Zrotation Xrotation Yrotation
				End Site
				{
					OFFSET 0.000000 -8.134600 0.000000
				}
			}
		}
	}
	JOINT RightHip
	{
		OFFSET -3.115499 -0.679600 -2.320301
		CHANNELS 6 Xposition Yposition Zposition Zrotation Xrotation Yrotation
		JOINT RightKnee
		{
			OFFSET 0.000000 -0.000004 -17.680401
			CHANNELS 6 Xposition Yposition Zposition Zrotation Xrotation Yrotation
			JOINT RightAnkle
			{
				OFFSET 0.000000 0.000000 -16.993797
				CHANNELS 6 Xposition Yposition Zposition Zrotation Xrotation Yrotation
				End Site
				{
					OFFSET 0.000000 -8.842300 0.000000
				}
			}
		}
	}
}
MOTION
Frames: 4
Frame Time: 0.041667
-31.837896 -8.701096 38.431793 2055.276485 34.542971 6.074728 -0.201595 0.334096 6.453196 -26.170949 -8.725442 14.151801 -0.000000 0.000001 3.567989 1.139641 -6.673147 -0.700060 0.000000 -0.000004 8.296397 233.912450 -155.797667 180.064386 -0.000003 0.000005 2.173900 6.113739 -6.916184 5.749502 1.927599 0.221402 6.048995 -19.314844 -0.876376 5.375342 4.959704 -0.000004 0.000004 191.724858 180.812729 69.025967 -0.000006 0.000003 -8.654200 65.855215 -14.769908 6.431969 0.000004 0.000000 -13.864098 4069.607680 -167.285663 123.513056 -3.155706 -0.765003 6.687800 28.936195 2.299572 13.347305 -3.592901 -0.000001 0.000009 -245.008776 172.153894 278.361245 -0.000009 0.000002 -10.352403 -376.993548 -9.531846 -354.290655 0.000007 -0.000004 -12.750301 23.040718 176.691093 143.912058 2.460595 -0.518107 -2.735501 -250.572484 -23.445032 70.806611 0.000005 -0.000002 -17.005901 23.407301 185.211316 -111.141958 -0.000010 -0.000001 -19.194403 613.030351 176.275175 225.070880 -3.115496 -0.679601 -2.320304 -434.089230 -47.521376 -83.075618 -0.000004 -0.000000 -17.680399 -391.058219 177.804946 -250.653790 0.000001 -0.000000 -16.993792 1021.070661 40.180903 -422.612600
-31.825998 -8.712696 38.444492 2055.148405 34.585124 6.078497 -0.201597 0.334098 6.453202 -26.128928 -8.813442 14.143078 0.000002 0.000002 3.567991 1.156319 -6.690469 -0.698848 -0.000001 -0.000004 8.296390 233.963923 -155.847841 180.068799 0.000001 0.000005 2.173907 6.100791 -6.956382 5.723235 1.927603 0.221408 6.048987 -19.412443 -0.806824 5.478196 4.959701 -0.000001 0.000010 191.838430 180.886605 68.910277 0.000000 -0.000009 -8.654191 65.707519 -14.725415 6.384732 0.000001 -0.000004 -13.864093 4069.654016 -167.238930 123.545254 -3.155704 -0.765000 6.687795 28.882336 2.297706 13.304010 -3.592892 -0.000003 0.000010 -244.957030 172.173278 278.387309 -0.000012 -0.000003 -10.352392 -376.968631 -9.502875 -354.265438 -0.000001 -0.000004 -12.750307 22.850748 176.738043 144.013801 2.460596 -0.518104 -2.735503 -250.646687 -23.580873 70.750576 0.000004 0.000001 -17.005898 23.745921 184.964268 -111.175235 -0.000004 0.000004 -19.194403 612.863367 176.240368 224.905207 -3.115496 -0.679595 -2.320302 -434.070461 -47.518340 -83.095644 0.000001 -0.000009 -17.680397 -391.024669 177.755455 -250.570216 0.000003 -0.000008 -16.993793 1021.148470 40.184673 -422.616370
-31.814198 -8.724400 38.458794 2055.012895 34.653573 6.086166 -0.201600 0.334101 6.453189 -26.106467 -8.947054 14.118120 0.000003 0.000003 3.567999 1.179951 -6.698159 -0.696227 -0.000001 -0.000004 8.296401 234.034301 -155.901035 180.058185 -0.000002 0.000000 2.173907 6.092102 -6.993279 5.694708 1.927603 0.221405 6.049001 -19.478970 -0.768106 5.570215 4.959703 0.000001 -0.000003 191.954475 180.902369 68.781890 -0.000006 0.000004 -8.654190 65.476270 -14.662891 6.328355 -0.000005 0.000002 -13.864100 4069.844606 -167.200271 123.539626 -3.155701 -0.765001 6.687801 28.766745 2.228081 13.230796 -3.592903 0.000010 0.000011 -244.811083 172.211021 278.480473 -0.000006 0.000002 -10.352399 -377.137364 -9.458649 -354.282349 0.000000 -0.000007 -12.750306 22.916739 176.707335 144.098208 2.460594 -0.518104 -2.735511 -250.677997 -23.667546 70.726800 -0.000000 -0.000006 -17.005899 24.038301 184.748790 -111.214201 -0.000010 0.000002 -19.194403 612.713540 176.211149 224.751118 -3.115501 -0.679595 -2.320310 -434.067128 -47.517725 -83.145088 -0.000006 -0.000004 -17.680412 -390.970055 177.707493 -250.469539 -0.000002 0.000005 -16.993793 1021.230651 40.190592 -422.620004
-31.802193 -8.735992 38.474197 2054.859680 34.726861 6.110559 -0.201599 0.334098 6.453206 -26.096234 -9.098544 14.080369 0.000002 0.000005 3.567993 1.211863 -6.695731 -0.692072 -0.000001 -0.000007 8.296403 234.086156 -155.944748 180.049947 -0.000001 0.000001 2.173898 6.097571 -6.999574 5.688255 1.927603 0.221403 6.049003 -19.497045 -0.754447 5.604568 4.959703 -0.000000 -0.000000 192.041014 180.871428 68.694006 -0.000009 -0.000006 -8.654198 65.197885 -14.575948 6.253841 -0.000001 -0.000006 -13.864105 4070.081094 -167.149086 123.538178 -3.155702 -0.765003 6.687810 28.595390 2.100549 13.153870 -3.592896 0.000007 0.000001 -244.657212 172.271059 278.512493 -0.000009 0.000001 -10.352400 -377.120426 -9.503575 -354.210933 0.000010 -0.000003 -12.750306 22.784580 176.693510 144.221794 2.460600 -0.518105 -2.735498 -250.655976 -23.714050 70.718092 0.000000 0.000000 -17.005898 24.314637 184.504788 -111.242943 -0.000011 -0.000001 -19.194401 612.523059 176.178323 224.535256 -3.115495 -0.679599 -2.320297 -434.053058 -47.506691 -83.209838 -0.000003 -0.000009 -17.680397 -390.883585 177.671921 -250.385173 0.000003 -0.000004 -16.993788 1021.300046 40.177864 -422.626588
